<?xml version="1.0" encoding="utf-8"?>
<!-- Generator: Adobe Illustrator 16.0.0, SVG Export Plug-In . SVG Version: 6.00 Build 0)  -->
<!DOCTYPE svg PUBLIC "-//W3C//DTD SVG 1.1//EN" "http://www.w3.org/Graphics/SVG/1.1/DTD/svg11.dtd">
<svg version="1.1" xmlns="http://www.w3.org/2000/svg" xmlns:xlink="http://www.w3.org/1999/xlink" x="0px" y="0px" width="612px"
	 height="482.682px" viewBox="0 149.818 612 482.682" enable-background="new 0 149.818 612 482.682" xml:space="preserve">
<g id="Ebene_2_2_">
	<rect x="0" y="149.818" fill="#FFFFFF" width="612" height="482.013"/>
</g>
<g id="Ebene_1">
	<g id="Ebene_2">
		<g>
			<path d="M68.802,568.965v14.713c-8.694-4.013-16.719-6.02-24.744-6.02c-8.025,0-13.377,2.007-18.058,6.02
				c-4.682,4.013-6.02,8.694-6.02,14.713c0,6.02,2.007,10.701,6.02,14.045c4.012,3.344,9.362,5.351,16.719,5.351
				c3.343,0,7.357-0.669,10.7-2.676v-7.356h-9.362v-12.039h26.082v26.753c-2.675,2.675-6.688,4.682-12.039,6.688
				c-5.35,1.337-10.7,2.675-16.05,2.675c-11.37,0-20.732-3.345-28.089-9.363s-11.37-14.714-11.37-24.077
				c0-10.03,4.013-18.058,11.37-24.744c7.357-6.021,16.719-9.364,28.758-9.364C52.751,563.614,61.446,565.621,68.802,568.965z"/>
			<path d="M101.573,564.282v66.211H84.853v-66.211H101.573z"/>
			<path d="M161.095,568.965v12.707c-8.695-4.014-15.382-6.021-20.732-6.021c-2.675,0-5.351,0.67-7.357,1.338
				c-2.007,0.669-2.675,2.007-2.675,4.014c0,1.337,0.668,2.675,2.007,3.344c1.337,0.668,4.012,2.675,9.362,4.682
				c4.682,2.007,8.695,3.344,11.371,4.682c2.675,1.337,5.35,4.012,7.356,6.688c2.005,2.675,3.344,6.02,3.344,10.7
				c0,6.02-2.007,10.701-6.688,14.714c-4.682,3.345-10.7,5.35-18.057,5.35c-8.025,0-16.051-2.005-24.076-6.687v-14.046
				c4.682,2.676,8.025,5.351,11.369,6.688c3.343,1.337,6.688,2.007,10.7,2.007c6.688,0,9.364-2.007,9.364-6.02
				c0-1.337-0.668-2.676-2.007-4.013c-1.337-1.338-4.682-2.675-9.362-4.682c-4.682-2.007-8.695-3.345-11.37-4.682
				c-2.675-1.338-5.35-3.344-7.357-6.688c-2.006-3.344-3.343-6.687-3.343-10.7c0-5.351,2.007-10.032,6.688-13.375
				c4.68-3.344,10.7-5.351,18.057-5.351C146.382,563.614,153.739,565.621,161.095,568.965z"/>
			<path d="M246.701,568.965v12.707c-8.695-4.014-15.382-6.021-20.734-6.021c-2.675,0-5.35,0.67-7.355,1.338
				c-2.006,0.669-2.675,2.007-2.675,4.014c0,1.337,0.668,2.675,2.005,3.344c1.338,0.668,4.014,2.675,9.364,4.682
				c4.682,2.007,8.693,3.344,11.37,4.682c2.675,1.337,5.35,4.012,7.355,6.688c2.007,2.675,3.345,6.02,3.345,10.7
				c0,6.02-2.006,10.701-6.688,14.714c-4.682,3.345-10.7,5.35-18.057,5.35c-8.025,0-16.05-2.005-24.077-6.687v-14.046
				c4.682,2.676,8.027,5.351,11.37,6.688c3.344,1.337,6.688,2.007,10.701,2.007c6.688,0,9.363-2.007,9.363-6.02
				c0-1.337-0.668-2.676-2.007-4.013c-1.336-1.338-4.682-2.675-9.363-4.682c-4.68-2.007-8.694-3.345-11.369-4.682
				c-2.675-1.338-5.35-3.344-7.357-6.688c-2.007-3.344-3.344-6.687-3.344-10.7c0-5.351,2.005-10.032,6.687-13.375
				c4.682-3.344,10.702-5.351,18.057-5.351C231.319,563.614,238.676,565.621,246.701,568.965z"/>
			<path d="M281.477,585.014c6.688,0,12.707,2.007,18.059,6.021c5.35,4.012,7.355,10.032,7.355,17.387
				c0,7.357-2.675,12.707-7.355,16.721c-4.682,4.014-10.702,6.019-17.389,6.019c-7.357,0-13.377-2.005-18.057-6.687
				c-4.682-4.014-7.357-10.032-7.357-16.721c0-6.687,2.675-12.707,7.357-16.719C268.102,587.021,274.121,585.014,281.477,585.014z
				 M281.477,623.135c6.688,0,10.032-5.35,10.032-15.382c0-9.363-3.344-14.714-10.032-14.714c-3.343,0-6.019,1.339-7.356,4.014
				c-2.005,2.675-2.675,6.019-2.675,10.7C271.446,617.786,274.79,623.135,281.477,623.135z"/>
			<path d="M330.3,564.282v66.211h-14.045v-66.211H330.3z"/>
			<path d="M373.104,630.493v-6.688c-4.014,4.681-8.695,7.355-14.714,7.355c-4.682,0-8.695-1.337-12.039-4.68
				c-3.344-2.676-4.682-7.357-4.682-12.707v-28.76h14.045v27.421c0,5.351,2.676,8.693,7.357,8.693c2.675,0,4.68-1.336,6.687-3.343
				s2.676-3.344,2.676-4.682v-28.09h14.045v44.81h-13.375V630.493z"/>
			<path d="M430.618,585.683v9.363h-16.051v18.058c0,2.006,0.669,4.013,2.007,5.35c1.337,1.339,2.675,2.007,5.351,2.007
				c2.675,0,6.019-0.668,9.363-2.675v10.031c-4.682,2.007-8.695,2.676-12.709,2.676c-5.35,0-10.03-1.337-12.707-4.012
				c-3.343-2.676-4.68-6.688-4.68-12.707v-19.396h-6.688v-2.676l18.726-20.732h2.007v14.044h15.382V585.683z"/>
			<path d="M437.307,571.639c0-2.007,0.668-4.014,2.007-5.351c1.337-1.338,3.344-2.007,5.35-2.007c2.007,0,4.013,0.669,5.351,2.007
				c1.337,1.337,2.007,3.344,2.007,5.351s-0.67,4.012-2.007,5.35c-1.338,1.339-3.344,2.007-5.351,2.007
				c-2.006,0-4.013-0.668-5.35-2.007C437.975,575.651,437.307,573.646,437.307,571.639z M452.021,585.683v44.81h-14.046v-44.81
				H452.021z"/>
			<path d="M486.797,585.014c6.688,0,12.707,2.007,18.057,6.021c5.351,4.012,7.357,10.032,7.357,17.387
				c0,7.357-2.676,12.707-7.357,16.721s-11.368,6.019-18.057,6.019c-7.357,0-13.376-2.005-18.058-6.687
				c-4.682-4.014-7.356-10.032-7.356-16.721c0-6.687,2.675-12.707,7.356-16.719C473.421,587.021,479.44,585.014,486.797,585.014z
				 M486.797,623.135c6.688,0,10.031-5.35,10.031-15.382c0-9.363-3.343-14.714-10.031-14.714c-3.344,0-6.019,1.339-7.357,4.014
				c-2.007,2.675-2.675,6.019-2.675,10.7C476.765,617.786,480.11,623.135,486.797,623.135z"/>
			<path d="M535.618,585.683v6.02c4.013-4.682,8.695-7.356,14.714-7.356c4.682,0,8.695,1.337,11.37,4.682
				c3.344,2.675,4.682,7.356,4.682,12.707v28.089h-14.046v-27.421c0-6.019-2.006-8.693-6.688-8.693
				c-3.344,0-6.688,2.675-10.032,7.355v28.759h-14.044v-44.81h14.044V585.683z"/>
			<path d="M608.517,588.36v10.03c-5.35-3.344-10.032-4.681-14.714-4.681c-3.343,0-5.35,1.337-5.35,3.344
				c0,0.668,0.67,1.337,1.338,2.007c0.669,0.668,3.344,2.007,8.025,4.012c4.682,2.007,8.025,4.014,10.032,6.688
				s2.675,5.35,2.675,8.025c0,4.682-1.338,8.025-4.682,10.7s-7.357,4.014-13.376,4.014s-11.37-1.339-16.05-3.344v-10.032
				c6.019,2.675,10.7,4.012,14.712,4.012c4.682,0,6.688-1.337,6.688-3.343c0-0.669-0.668-1.339-1.338-2.676
				c-0.669-1.338-3.344-2.007-8.694-4.013c-4.682-2.007-8.025-4.013-10.031-6.019c-2.007-2.007-2.676-4.683-2.676-7.357
				c0-4.014,2.007-7.356,5.351-10.032c3.344-2.675,8.025-4.013,13.375-4.013C599.155,585.014,603.835,586.353,608.517,588.36z"/>
		</g>
		<rect x="0" y="149.818" width="612" height="400.802"/>
		<polyline stroke="#FFFFFF" stroke-width="20" stroke-miterlimit="10" points="103.224,151.34 210.767,308.119 387.845,567.258 		
			"/>
		
			<line fill="none" stroke="#FFFFFF" stroke-width="20" stroke-miterlimit="10" x1="201.265" y1="294.73" x2="411.599" y2="147.885"/>
		
			<line fill="none" stroke="#FFFFFF" stroke-width="20" stroke-miterlimit="10" x1="323.491" y1="473.536" x2="621.501" y2="241.606"/>
		<polyline stroke="#FFFFFF" stroke-width="20" stroke-miterlimit="10" points="434.921,385.428 481.567,454.1 558.876,567.258 		
			"/>
	</g>
	<g id="Ebene_3_1_">
		<polygon fill="#FFFFFF" stroke="#FFFFFF" stroke-width="3" stroke-miterlimit="10" points="11.941,281.898 38.286,164.853 
			67.224,281.898 		"/>
	</g>
	<polyline stroke="#FFFFFF" stroke-width="20" stroke-miterlimit="10" points="393.569,151.456 437.067,215.493 509.159,321.014 	
		"/>
</g>
</svg>
