<svg xmlns="http://www.w3.org/2000/svg" viewBox="0 0 141.73 128.02"><g id="Ebene_2" data-name="Ebene 2"><g id="Ebene_3" data-name="Ebene 3"><polygon points="34.08 46.25 59.79 41.2 77.62 45.38 97.92 42.31 125.92 0.6 103.36 4.18 84.83 0 62.16 4.38 34.08 46.25" fill="#3664ae"/><polygon points="42.84 40.29 51.99 38.78 62.79 22.39 54.03 23.6 42.84 40.29" fill="#1d1d1b"/><polygon points="55.31 37.88 70.34 15.29 75.63 14.46 92.48 18.69 110.76 16.12 95.58 38.56 77.9 41.43 59.69 37.27 55.31 37.88" fill="#1d1d1b"/><polygon points="56.75 19.59 64.75 7.05 83.64 3.95 85.91 3.95 80.54 13.02 76.09 12.11 69.29 13.02 65.47 18.5 56.75 19.59" fill="#1d1d1b"/><polygon points="88.33 4.86 83.04 13.62 92.93 16.57 112.73 13.47 117.72 5.99 102.68 8.26 88.33 4.86" fill="#1d1d1b"/><polygon points="92.18 21.63 105.25 19.59 95.65 34.02 82.36 35.69 92.18 21.63" fill="#3664ae"/><polygon points="68.53 28.89 78.81 31.34 85.53 22.09 75.41 19.59 68.53 28.89" fill="#3664ae"/><polygon points="85.76 12.09 88.95 7.17 96.07 8.98 92.92 13.83 85.76 12.09" fill="#3664ae"/><path d="M0,117v3.62A7.38,7.38,0,0,0,7.38,128h127a7.37,7.37,0,0,0,7.38-7.38V117.1a7.39,7.39,0,0,0-.3-2.09L130.8,78.93a7.37,7.37,0,0,0-7.08-5.3H17.13A7.37,7.37,0,0,0,10,79.08l-9.75,36A7.42,7.42,0,0,0,0,117Z" fill="#020304"/><path d="M4.43,118.86v2.94a1.87,1.87,0,0,0,1.78,1.82H135.07a1.87,1.87,0,0,0,1.78-1.82v-2.94Z" fill="#646363"/><polygon points="25.59 78.56 15.21 114.22 121.99 114.22 111.11 78.56 25.59 78.56" fill="#0095cc"/><path d="M115.54,78.56l11.08,35.66h9.77l-9.72-33.09c-.22-.78-.8-2.57-2.72-2.57Z" fill="#646363"/><path d="M5.09,114.22h5.18L20.65,78.56H17.14c-1.21,0-1.79.5-2.38,2.37S5.09,114.22,5.09,114.22Z" fill="#646363"/><polygon points="61.55 98.91 65.33 96.04 18.26 34.47 14.25 37.41 61.55 98.91" fill="#020304"/><polygon points="79.58 98.91 75.85 96.14 125.67 34.54 129.29 37.56 79.58 98.91" fill="#020304"/><rect x="68.52" y="80.24" width="4.68" height="16.58" fill="#3373b9"/><rect x="90.03" y="48.19" width="4.8" height="9.56" fill="#3373b9"/><rect x="80" y="63.39" width="4.72" height="19.19" fill="#3373b9"/><rect x="55.31" y="64.33" width="4.65" height="14.2" fill="#3373b9"/><rect x="70.28" y="52.97" width="4.77" height="13.79" fill="#3373b9"/><rect x="48.1" y="48.31" width="4.72" height="9.32" fill="#3373b9"/><text transform="translate(27.49 111.07)" font-size="10.95" fill="#1d1d1b" font-family="BerlinSansFB-Reg, Berlin Sans FB">GIS Solution GmbH</text></g></g></svg>