<?xml version="1.0" encoding="utf-8"?>
<!-- Generator: Adobe Illustrator 25.2.3, SVG Export Plug-In . SVG Version: 6.00 Build 0)  -->
<svg version="1.1" xmlns="http://www.w3.org/2000/svg" xmlns:xlink="http://www.w3.org/1999/xlink" x="0px" y="0px"
	 viewBox="0 0 141.7 128" style="enable-background:new 0 0 141.7 128;" xml:space="preserve">
<style type="text/css">
	.st0{display:none;}
	.st1{display:inline;}
	.st2{fill:#3664AE;}
	.st3{fill:#1D1D1B;}
	.st4{fill:#020304;}
	.st5{fill:#646363;}
	.st6{fill:#0095CC;}
	.st7{fill:#3373B9;}
	.st8{font-family:'BerlinSansFB-Reg';}
	.st9{font-size:10.95px;}
	.st10{fill:none;stroke:#000000;stroke-width:3;stroke-miterlimit:10;}
	.st11{stroke:#FFFFFF;stroke-width:3;stroke-miterlimit:10;}
	.st12{fill:#FFFFFF;stroke:#FFFFFF;stroke-width:3;stroke-miterlimit:10;}
</style>
<g id="Ebene_1" class="st0">
	<g id="Ebene_2_1_" class="st1">
		<g id="Ebene_3">
			<polygon class="st2" points="34.1,46.2 59.8,41.2 77.6,45.4 97.9,42.3 125.9,0.6 103.4,4.2 84.8,0 62.2,4.4 			"/>
			<polygon class="st3" points="42.8,40.3 52,38.8 62.8,22.4 54,23.6 			"/>
			<polygon class="st3" points="55.3,37.9 70.3,15.3 75.6,14.5 92.5,18.7 110.8,16.1 95.6,38.6 77.9,41.4 59.7,37.3 			"/>
			<polygon class="st3" points="56.8,19.6 64.8,7.1 83.6,4 85.9,4 80.5,13 76.1,12.1 69.3,13 65.5,18.5 			"/>
			<polygon class="st3" points="88.3,4.9 83,13.6 92.9,16.6 112.7,13.5 117.7,6 102.7,8.3 			"/>
			<polygon class="st2" points="92.2,21.6 105.2,19.6 95.7,34 82.4,35.7 			"/>
			<polygon class="st2" points="68.5,28.9 78.8,31.3 85.5,22.1 75.4,19.6 			"/>
			<polygon class="st2" points="85.8,12.1 88.9,7.2 96.1,9 92.9,13.8 			"/>
			<path class="st4" d="M0,117v3.6c0,4.1,3.3,7.4,7.4,7.4h127c4.1,0,7.4-3.3,7.4-7.4c0,0,0,0,0,0v-3.5c0-0.7-0.1-1.4-0.3-2.1
				l-10.7-36.1c-0.9-3.1-3.8-5.3-7.1-5.3H17.1c-3.3,0-6.3,2.2-7.1,5.5l-9.8,36C0.1,115.7,0,116.4,0,117z"/>
			<path class="st5" d="M4.4,118.9v2.9c0,1,0.8,1.8,1.8,1.8h128.9c1,0,1.8-0.8,1.8-1.8v-2.9H4.4z"/>
			<polygon class="st6" points="25.6,78.6 15.2,114.2 122,114.2 111.1,78.6 			"/>
			<path class="st5" d="M115.5,78.6l11.1,35.7h9.8l-9.7-33.1c-0.2-0.8-0.8-2.6-2.7-2.6L115.5,78.6z"/>
			<path class="st5" d="M5.1,114.2h5.2l10.4-35.7h-3.5c-1.2,0-1.8,0.5-2.4,2.4S5.1,114.2,5.1,114.2z"/>
			<polygon class="st4" points="61.5,98.9 65.3,96 18.3,34.5 14.2,37.4 			"/>
			<polygon class="st4" points="79.6,98.9 75.8,96.1 125.7,34.5 129.3,37.6 			"/>
			<rect x="68.5" y="80.2" class="st7" width="4.7" height="16.6"/>
			<rect x="90" y="48.2" class="st7" width="4.8" height="9.6"/>
			<rect x="80" y="63.4" class="st7" width="4.7" height="19.2"/>
			<rect x="55.3" y="64.3" class="st7" width="4.7" height="14.2"/>
			<rect x="70.3" y="53" class="st7" width="4.8" height="13.8"/>
			<rect x="48.1" y="48.3" class="st7" width="4.7" height="9.3"/>
			<text transform="matrix(1 0 0 1 27.49 111.07)" class="st3 st8 st9">GIS Solution GmbH</text>
		</g>
	</g>
</g>
<g id="Ebene_2">
	<g>
		<path d="M10.5,107.7v2.2C9.2,109.3,8,109,6.8,109c-1.2,0-2,0.3-2.7,0.9s-0.9,1.3-0.9,2.2c0,0.9,0.3,1.6,0.9,2.1s1.4,0.8,2.5,0.8
			c0.5,0,1.1-0.1,1.6-0.4v-1.1H6.8v-1.8h3.9v4c-0.4,0.4-1,0.7-1.8,1c-0.8,0.2-1.6,0.4-2.4,0.4c-1.7,0-3.1-0.5-4.2-1.4
			c-1.1-0.9-1.7-2.2-1.7-3.6c0-1.5,0.6-2.7,1.7-3.7c1.1-0.9,2.5-1.4,4.3-1.4C8.1,106.9,9.4,107.2,10.5,107.7z"/>
		<path d="M15.4,107v9.9h-2.5V107H15.4z"/>
		<path d="M24.3,107.7v1.9c-1.3-0.6-2.3-0.9-3.1-0.9c-0.4,0-0.8,0.1-1.1,0.2c-0.3,0.1-0.4,0.3-0.4,0.6c0,0.2,0.1,0.4,0.3,0.5
			s0.6,0.4,1.4,0.7c0.7,0.3,1.3,0.5,1.7,0.7c0.4,0.2,0.8,0.6,1.1,1c0.3,0.4,0.5,0.9,0.5,1.6c0,0.9-0.3,1.6-1,2.2
			c-0.7,0.5-1.6,0.8-2.7,0.8c-1.2,0-2.4-0.3-3.6-1v-2.1c0.7,0.4,1.2,0.8,1.7,1s1,0.3,1.6,0.3c1,0,1.4-0.3,1.4-0.9
			c0-0.2-0.1-0.4-0.3-0.6c-0.2-0.2-0.7-0.4-1.4-0.7c-0.7-0.3-1.3-0.5-1.7-0.7s-0.8-0.5-1.1-1s-0.5-1-0.5-1.6c0-0.8,0.3-1.5,1-2
			c0.7-0.5,1.6-0.8,2.7-0.8C22.1,106.9,23.2,107.2,24.3,107.7z"/>
		<path d="M37.1,107.7v1.9c-1.3-0.6-2.3-0.9-3.1-0.9c-0.4,0-0.8,0.1-1.1,0.2c-0.3,0.1-0.4,0.3-0.4,0.6c0,0.2,0.1,0.4,0.3,0.5
			s0.6,0.4,1.4,0.7c0.7,0.3,1.3,0.5,1.7,0.7c0.4,0.2,0.8,0.6,1.1,1c0.3,0.4,0.5,0.9,0.5,1.6c0,0.9-0.3,1.6-1,2.2
			c-0.7,0.5-1.6,0.8-2.7,0.8c-1.2,0-2.4-0.3-3.6-1v-2.1c0.7,0.4,1.2,0.8,1.7,1s1,0.3,1.6,0.3c1,0,1.4-0.3,1.4-0.9
			c0-0.2-0.1-0.4-0.3-0.6c-0.2-0.2-0.7-0.4-1.4-0.7c-0.7-0.3-1.3-0.5-1.7-0.7s-0.8-0.5-1.1-1s-0.5-1-0.5-1.6c0-0.8,0.3-1.5,1-2
			c0.7-0.5,1.6-0.8,2.7-0.8C34.8,106.9,35.9,107.2,37.1,107.7z"/>
		<path d="M42.3,110.1c1,0,1.9,0.3,2.7,0.9s1.1,1.5,1.1,2.6c0,1.1-0.4,1.9-1.1,2.5s-1.6,0.9-2.6,0.9c-1.1,0-2-0.3-2.7-1
			c-0.7-0.6-1.1-1.5-1.1-2.5c0-1,0.4-1.9,1.1-2.5C40.3,110.4,41.2,110.1,42.3,110.1z M42.3,115.8c1,0,1.5-0.8,1.5-2.3
			c0-1.4-0.5-2.2-1.5-2.2c-0.5,0-0.9,0.2-1.1,0.6c-0.3,0.4-0.4,0.9-0.4,1.6C40.8,115,41.3,115.8,42.3,115.8z"/>
		<path d="M49.6,107v9.9h-2.1V107H49.6z"/>
		<path d="M56,116.9v-1c-0.6,0.7-1.3,1.1-2.2,1.1c-0.7,0-1.3-0.2-1.8-0.7c-0.5-0.4-0.7-1.1-0.7-1.9v-4.3h2.1v4.1
			c0,0.8,0.4,1.3,1.1,1.3c0.4,0,0.7-0.2,1-0.5s0.4-0.5,0.4-0.7v-4.2h2.1v6.7H56z"/>
		<path d="M64.6,110.2v1.4h-2.4v2.7c0,0.3,0.1,0.6,0.3,0.8s0.4,0.3,0.8,0.3c0.4,0,0.9-0.1,1.4-0.4v1.5c-0.7,0.3-1.3,0.4-1.9,0.4
			c-0.8,0-1.5-0.2-1.9-0.6c-0.5-0.4-0.7-1-0.7-1.9v-2.9h-1v-0.4l2.8-3.1h0.3v2.1H64.6z"/>
		<path d="M65.6,108.1c0-0.3,0.1-0.6,0.3-0.8s0.5-0.3,0.8-0.3c0.3,0,0.6,0.1,0.8,0.3s0.3,0.5,0.3,0.8c0,0.3-0.1,0.6-0.3,0.8
			c-0.2,0.2-0.5,0.3-0.8,0.3c-0.3,0-0.6-0.1-0.8-0.3C65.7,108.7,65.6,108.4,65.6,108.1z M67.8,110.2v6.7h-2.1v-6.7H67.8z"/>
		<path d="M73,110.1c1,0,1.9,0.3,2.7,0.9s1.1,1.5,1.1,2.6c0,1.1-0.4,1.9-1.1,2.5S74,117,73,117c-1.1,0-2-0.3-2.7-1
			c-0.7-0.6-1.1-1.5-1.1-2.5c0-1,0.4-1.9,1.1-2.5C71,110.4,71.9,110.1,73,110.1z M73,115.8c1,0,1.5-0.8,1.5-2.3
			c0-1.4-0.5-2.2-1.5-2.2c-0.5,0-0.9,0.2-1.1,0.6c-0.3,0.4-0.4,0.9-0.4,1.6C71.5,115,72,115.8,73,115.8z"/>
		<path d="M80.3,110.2v0.9c0.6-0.7,1.3-1.1,2.2-1.1c0.7,0,1.3,0.2,1.7,0.7c0.5,0.4,0.7,1.1,0.7,1.9v4.2h-2.1v-4.1
			c0-0.9-0.3-1.3-1-1.3c-0.5,0-1,0.4-1.5,1.1v4.3h-2.1v-6.7H80.3z"/>
		<path d="M91.2,110.6v1.5c-0.8-0.5-1.5-0.7-2.2-0.7c-0.5,0-0.8,0.2-0.8,0.5c0,0.1,0.1,0.2,0.2,0.3c0.1,0.1,0.5,0.3,1.2,0.6
			c0.7,0.3,1.2,0.6,1.5,1c0.3,0.4,0.4,0.8,0.4,1.2c0,0.7-0.2,1.2-0.7,1.6c-0.5,0.4-1.1,0.6-2,0.6c-0.9,0-1.7-0.2-2.4-0.5v-1.5
			c0.9,0.4,1.6,0.6,2.2,0.6c0.7,0,1-0.2,1-0.5c0-0.1-0.1-0.2-0.2-0.4s-0.5-0.3-1.3-0.6c-0.7-0.3-1.2-0.6-1.5-0.9
			c-0.3-0.3-0.4-0.7-0.4-1.1c0-0.6,0.3-1.1,0.8-1.5c0.5-0.4,1.2-0.6,2-0.6C89.8,110.1,90.5,110.3,91.2,110.6z"/>
		<path d="M106.4,107.7v2.2c-1.3-0.6-2.5-0.9-3.7-0.9c-1.2,0-2,0.3-2.7,0.9c-0.6,0.6-0.9,1.3-0.9,2.2c0,0.9,0.3,1.6,0.9,2.1
			c0.6,0.5,1.4,0.8,2.5,0.8c0.5,0,1.1-0.1,1.6-0.4v-1.1h-1.4v-1.8h3.9v4c-0.4,0.4-1,0.7-1.8,1s-1.6,0.4-2.4,0.4
			c-1.7,0-3.1-0.5-4.2-1.4c-1.1-0.9-1.7-2.2-1.7-3.6c0-1.5,0.6-2.7,1.7-3.7c1.1-0.9,2.5-1.4,4.3-1.4
			C104,106.9,105.3,107.2,106.4,107.7z"/>
		<path d="M110.7,110.2v0.9c0.7-0.7,1.5-1,2.3-1c1.1,0,1.9,0.5,2.4,1.4c0.8-0.9,1.7-1.4,2.6-1.4c0.8,0,1.4,0.2,1.9,0.7
			s0.7,1.1,0.7,1.8v4.3h-2.1V113c0-0.5-0.1-0.8-0.3-1.1c-0.2-0.3-0.5-0.4-0.9-0.4c-0.6,0-1.2,0.4-1.7,1.1v4.3h-2.1v-3.9
			c0-0.5-0.1-0.8-0.3-1.1c-0.2-0.2-0.5-0.4-0.9-0.4c-0.6,0-1.1,0.3-1.6,0.9v4.5h-2.1v-6.7H110.7z"/>
		<path d="M124.4,107v3.6c0.5-0.3,1.1-0.5,1.7-0.5c1,0,1.7,0.3,2.3,1c0.6,0.6,0.9,1.5,0.9,2.5c0,1-0.3,1.9-0.9,2.5
			c-0.6,0.6-1.3,1-2.2,1c-0.7,0-1.3-0.2-1.9-0.6v0.5h-2.1V107H124.4z M124.4,112v3.1c0.4,0.4,0.8,0.6,1.2,0.6c0.5,0,0.9-0.2,1.2-0.6
			c0.3-0.4,0.4-0.9,0.4-1.5c0-0.6-0.1-1.1-0.4-1.5c-0.3-0.4-0.7-0.5-1.2-0.5C125.3,111.5,124.8,111.7,124.4,112z"/>
		<path d="M140.8,107v9.9h-2.5v-4h-4.9v4H131V107h2.5v4h4.9v-4H140.8z"/>
	</g>
	<line class="st10" x1="0" y1="99" x2="141.7" y2="99"/>
	<rect y="7" width="141.7" height="92.8"/>
	<polyline class="st11" points="23.9,5.5 48.8,41.8 89.8,101.8 	"/>
	<line class="st11" x1="46.6" y1="38.7" x2="95.3" y2="4.7"/>
	<line class="st11" x1="74.9" y1="80.1" x2="143.9" y2="26.4"/>
	<polyline class="st11" points="100.7,59.7 111.5,75.6 129.4,101.8 	"/>
</g>
<g id="Ebene_3_1_">
	<polygon class="st12" points="11.1,78.1 17.2,51 23.9,78.1 	"/>
</g>
</svg>
