<?xml version="1.0" encoding="utf-8"?>
<!-- Generator: Adobe Illustrator 16.0.0, SVG Export Plug-In . SVG Version: 6.00 Build 0)  -->
<!DOCTYPE svg PUBLIC "-//W3C//DTD SVG 1.1//EN" "http://www.w3.org/Graphics/SVG/1.1/DTD/svg11.dtd">
<svg version="1.1" xmlns="http://www.w3.org/2000/svg" xmlns:xlink="http://www.w3.org/1999/xlink" x="0px" y="0px" width="612px"
	 height="482.682px" viewBox="0 149.818 612 482.682" enable-background="new 0 149.818 612 482.682" xml:space="preserve">
<g id="Ebene_1">
	<g id="Ebene_2">
		<rect x="0" y="151.456" width="612" height="382.044"/>
		<polyline stroke="#FFFFFF" stroke-width="20" stroke-miterlimit="10" points="98.201,144 207.642,303.546 387.845,567.258 		"/>
		
			<line fill="none" stroke="#FFFFFF" stroke-width="20" stroke-miterlimit="10" x1="201.265" y1="294.73" x2="411.599" y2="147.885"/>
		
			<line fill="none" stroke="#FFFFFF" stroke-width="20" stroke-miterlimit="10" x1="323.491" y1="473.536" x2="621.501" y2="241.606"/>
		<polyline stroke="#FFFFFF" stroke-width="20" stroke-miterlimit="10" points="434.921,385.428 481.567,454.1 558.876,567.258 		
			"/>
	</g>
	<g id="Ebene_3">
		<rect x="-0.5" y="533.5" fill="#FFFFFF" width="614.25" height="101.75"/>
	</g>
	<g id="Ebene_3_1_">
		<polygon fill="#FFFFFF" stroke="#FFFFFF" stroke-width="3" stroke-miterlimit="10" points="11.941,281.898 38.286,164.853 
			67.224,281.898 		"/>
	</g>
	<polyline stroke="#FFFFFF" stroke-width="20" stroke-miterlimit="10" points="405.625,156.63 449.123,220.668 521.216,326.189 	"/>
</g>
<g id="Ebene_2_3_">
	<g>
		<path d="M78.918,558.731v14.072c-8.315-3.838-15.991-5.757-23.667-5.757c-7.676,0-12.794,1.919-17.271,5.757
			c-4.478,3.838-5.758,8.316-5.758,14.072c0,5.758,1.919,10.235,5.758,13.434c3.837,3.198,8.955,5.117,15.991,5.117
			c3.198,0,7.037-0.64,10.234-2.56v-7.035h-8.954v-11.516h24.946v25.588c-2.558,2.559-6.397,4.479-11.514,6.397
			c-5.117,1.278-10.234,2.559-15.351,2.559c-10.875,0-19.83-3.199-26.866-8.956c-7.037-5.756-10.875-14.072-10.875-23.028
			c0-9.594,3.838-17.271,10.875-23.666c7.037-5.759,15.991-8.957,27.505-8.957C63.566,553.614,71.883,555.533,78.918,558.731z"/>
		<path d="M111.262,554.253v63.327H95.271v-63.327H111.262z"/>
		<path d="M169.193,558.731v12.154c-8.316-3.839-14.712-5.759-19.829-5.759c-2.559,0-5.118,0.641-7.037,1.28
			c-1.919,0.64-2.559,1.919-2.559,3.839c0,1.278,0.639,2.558,1.919,3.197c1.278,0.64,3.837,2.559,8.954,4.479
			c4.478,1.919,8.316,3.198,10.875,4.478c2.558,1.278,5.117,3.837,7.036,6.396c1.918,2.558,3.198,5.757,3.198,10.233
			c0,5.758-1.919,10.235-6.397,14.073c-4.478,3.199-10.234,5.117-17.271,5.117c-7.676,0-15.352-1.918-23.027-6.396v-13.435
			c4.478,2.56,7.675,5.118,10.874,6.397c3.197,1.278,6.397,1.92,10.234,1.92c6.397,0,8.956-1.92,8.956-5.758
			c0-1.278-0.639-2.56-1.919-3.838c-1.279-1.279-4.478-2.559-8.955-4.478c-4.478-1.92-8.316-3.199-10.875-4.479
			c-2.558-1.279-5.117-3.197-7.037-6.396c-1.919-3.198-3.197-6.396-3.197-10.234c0-5.117,1.919-9.596,6.397-12.793
			c4.477-3.198,10.234-5.117,17.271-5.117C155.12,553.614,162.156,555.533,169.193,558.731z"/>
		<path d="M247.071,558.731v12.154c-8.317-3.839-14.713-5.759-19.831-5.759c-2.559,0-5.117,0.641-7.035,1.28
			c-1.919,0.64-2.559,1.919-2.559,3.839c0,1.278,0.64,2.558,1.918,3.197c1.28,0.64,3.839,2.559,8.956,4.479
			c4.478,1.919,8.315,3.198,10.875,4.478c2.559,1.278,5.117,3.837,7.035,6.396c1.919,2.558,3.199,5.757,3.199,10.233
			c0,5.758-1.919,10.235-6.397,14.073c-4.478,3.199-10.234,5.117-17.271,5.117c-7.675,0-15.351-1.918-23.029-6.396v-13.435
			c4.478,2.56,7.678,5.118,10.875,6.397c3.198,1.278,6.397,1.92,10.235,1.92c6.397,0,8.956-1.92,8.956-5.758
			c0-1.278-0.64-2.56-1.919-3.838c-1.278-1.279-4.478-2.559-8.956-4.478c-4.477-1.92-8.315-3.199-10.874-4.479
			c-2.559-1.279-5.117-3.197-7.037-6.396c-1.919-3.198-3.198-6.396-3.198-10.234c0-5.117,1.918-9.596,6.396-12.793
			c4.478-3.198,10.236-5.117,17.271-5.117C232.358,553.614,239.394,555.533,247.071,558.731z"/>
		<path d="M281.332,574.083c6.397,0,12.153,1.919,17.272,5.758c5.117,3.837,7.035,9.596,7.035,16.63
			c0,7.037-2.558,12.153-7.035,15.992c-4.478,3.839-10.236,5.757-16.632,5.757c-7.037,0-12.794-1.918-17.271-6.396
			c-4.478-3.839-7.037-9.596-7.037-15.992c0-6.396,2.559-12.154,7.037-15.991C268.539,576.002,274.296,574.083,281.332,574.083z
			 M281.332,610.544c6.397,0,9.595-5.117,9.595-14.712c0-8.956-3.198-14.073-9.595-14.073c-3.198,0-5.756,1.28-7.036,3.839
			c-1.918,2.558-2.559,5.756-2.559,10.234C271.737,605.427,274.936,610.544,281.332,610.544z"/>
		<path d="M330.029,554.253v63.327h-13.434v-63.327H330.029z"/>
		<path d="M372.968,617.58v-6.396c-3.839,4.477-8.316,7.035-14.073,7.035c-4.478,0-8.316-1.279-11.515-4.477
			c-3.198-2.559-4.478-7.036-4.478-12.153v-27.507h13.433v26.227c0,5.117,2.56,8.314,7.037,8.314c2.559,0,4.476-1.277,6.396-3.197
			c1.919-1.919,2.56-3.198,2.56-4.478v-26.866h13.433v42.857h-12.792V617.58z"/>
		<path d="M427.978,574.722v8.955h-15.352v17.271c0,1.918,0.64,3.838,1.919,5.116c1.279,1.281,2.559,1.92,5.118,1.92
			c2.558,0,5.756-0.639,8.955-2.559v9.595c-4.478,1.919-8.316,2.559-12.155,2.559c-5.117,0-9.594-1.278-12.154-3.837
			c-3.197-2.559-4.476-6.396-4.476-12.153v-18.551h-6.397v-2.56l17.91-19.829h1.92v13.433h14.712V574.722z"/>
		<path d="M436.375,561.29c0-1.919,0.639-3.839,1.919-5.117c1.278-1.28,3.198-1.92,5.117-1.92s3.838,0.64,5.117,1.92
			c1.278,1.278,1.919,3.198,1.919,5.117c0,1.92-0.641,3.837-1.919,5.117c-1.279,1.28-3.198,1.919-5.117,1.919
			s-3.839-0.639-5.117-1.919C437.014,565.127,436.375,563.21,436.375,561.29z M450.448,574.722v42.857h-13.434v-42.857H450.448z"/>
		<path d="M483.71,574.083c6.396,0,12.153,1.919,17.27,5.758c5.118,3.837,8.037,9.596,8.037,16.63
			c0,7.037-3.559,12.153-8.037,15.992c-4.478,3.839-10.873,5.757-17.27,5.757c-7.037,0-12.794-1.918-17.271-6.396
			c-4.478-3.839-7.036-9.596-7.036-15.992c0-6.396,2.559-12.154,7.036-15.991C470.916,576.002,476.673,574.083,483.71,574.083z
			 M483.71,610.544c6.396,0,9.594-5.117,9.594-14.712c0-8.956-3.197-14.073-9.594-14.073c-3.198,0-5.757,1.28-7.037,3.839
			c-1.92,2.558-2.559,5.756-2.559,10.234C474.115,605.427,477.314,610.544,483.71,610.544z"/>
		<path d="M529.405,574.722v5.757c3.838-4.478,8.317-7.036,14.073-7.036c4.478,0,8.316,1.279,10.875,4.479
			c3.198,2.558,4.478,7.036,4.478,12.153v26.865h-13.434v-26.227c0-5.756-1.919-8.314-6.396-8.314c-3.198,0-6.396,2.559-9.596,7.035
			v27.506h-13.432v-42.857h13.432V574.722z"/>
		<path d="M600.128,577.282v9.594c-5.116-3.198-9.595-4.477-14.072-4.477c-3.197,0-5.117,1.278-5.117,3.198
			c0,0.639,0.641,1.278,1.279,1.919c0.641,0.639,3.198,1.92,7.677,3.837c4.478,1.92,7.676,3.839,9.595,6.397
			c1.92,2.559,2.559,5.116,2.559,7.676c0,4.478-1.279,7.676-4.478,10.234s-7.037,3.839-12.794,3.839
			c-5.756,0-10.875-1.28-15.351-3.198v-9.595c5.756,2.558,10.234,3.837,14.071,3.837c4.478,0,6.397-1.279,6.397-3.197
			c0-0.64-0.64-1.281-1.28-2.56c-0.64-1.279-3.198-1.92-8.315-3.838c-4.478-1.92-7.676-3.838-9.595-5.757s-2.559-4.479-2.559-7.037
			c0-3.839,1.919-7.035,5.117-9.595c3.198-2.559,7.676-3.838,12.793-3.838C591.174,574.083,595.651,575.363,600.128,577.282z"/>
	</g>
</g>
</svg>
