<?xml version="1.0" encoding="utf-8"?>
<!-- Generator: Adobe Illustrator 16.0.0, SVG Export Plug-In . SVG Version: 6.00 Build 0)  -->
<!DOCTYPE svg PUBLIC "-//W3C//DTD SVG 1.1//EN" "http://www.w3.org/Graphics/SVG/1.1/DTD/svg11.dtd">
<svg version="1.1" id="Ebene_1" xmlns="http://www.w3.org/2000/svg" xmlns:xlink="http://www.w3.org/1999/xlink" x="0px" y="0px"
	 width="612px" height="612px" viewBox="0 0 612 612" enable-background="new 0 0 612 612" xml:space="preserve">
<g id="Ebene_2">
	<g id="ÖPNV">
		<g id="UBahn">
			<rect fill="#1967AF" width="612" height="612"/>
		</g>
	</g>
</g>
<path fill="#FFFFFF" d="M560.747,504.02c-11.109,0-21.831-2.478-31.314-6.773c-9.87-4.528-20.865-7.199-32.439-7.199
	c-11.456,0-22.529,2.671-32.286,7.199c-9.602,4.296-20.245,6.773-31.438,6.773c-11.148,0-21.866-2.478-31.474-6.773
	c-9.796-4.528-20.785-7.199-32.285-7.199c-11.575,0-22.574,2.671-32.444,7.199c-9.479,4.296-20.245,6.773-31.394,6.773
	c-11.104,0-21.871-2.478-31.394-6.773c-9.826-4.528-20.865-7.199-32.355-7.199c-11.534,0-22.604,2.671-32.359,7.199
	c-9.523,4.296-20.246,6.773-31.354,6.773c-11.228,0-21.91-2.478-31.548-6.773c-9.716-4.528-20.78-7.199-32.285-7.199
	s-22.574,2.671-32.36,7.199c-9.563,4.296-20.245,6.773-31.394,6.773v-47.071c11.148,0,21.831-2.517,31.394-6.813
	c9.801-4.528,20.865-7.199,32.36-7.199s22.569,2.671,32.285,7.199c9.638,4.296,20.33,6.813,31.548,6.813
	c11.108,0,21.831-2.517,31.354-6.813c9.756-4.528,20.825-7.199,32.359-7.199c11.49,0,22.529,2.671,32.355,7.199
	c9.522,4.296,20.29,6.813,31.394,6.813c11.148,0,21.915-2.517,31.394-6.813c9.87-4.528,20.869-7.199,32.444-7.199
	c11.49,0,22.489,2.671,32.285,7.199c9.603,4.296,20.325,6.813,31.474,6.813c11.192,0,21.83-2.517,31.438-6.813
	c9.757-4.528,20.825-7.199,32.286-7.199c11.574,0,22.569,2.671,32.439,7.199c9.483,4.296,20.205,6.813,31.314,6.813V504.02z"/>
<path fill="#FFFFFF" d="M50.826,301.759l-0.193,111.176c11.148,0,21.831-2.477,31.395-6.772c9.8-4.529,20.864-7.199,32.359-7.199
	s22.569,2.67,32.286,7.199c9.637,4.296,20.329,6.772,31.547,6.772c11.108,0,21.831-2.477,31.354-6.772
	c9.756-4.529,20.825-7.199,32.359-7.199c11.49,0,22.53,2.67,32.355,7.199c9.528,4.296,20.29,6.772,31.394,6.772
	c11.148,0,21.915-2.477,31.398-6.772c9.865-4.529,20.865-7.199,32.439-7.199c11.49,0,22.489,2.67,32.285,7.199
	c9.603,4.296,20.325,6.772,31.474,6.772c3.141,0,6.153-0.658,9.25-1.045c5.614-1.199,11.303-1.744,16.723-3.909
	c0.153-0.079,0.277-0.114,0.387-0.193c40.53-16.45,75.481-57.174,97.322-87.521l10.842-18.502L50.826,301.759L50.826,301.759z"/>
<path fill="#FFFFFF" d="M339.405,182.303h74.748l0.659-0.079h0.466c0.853,0,20.522-0.773,27.143,13.933l28.529,67.856h-97.238
	L339.405,182.303z M136.798,254.688c0,5.148-4.222,9.33-9.291,9.33H85.777c-5.104,0-9.29-4.182-9.29-9.33v-63.134
	c0-5.069,4.187-9.251,9.29-9.251h41.729c5.069,0,9.291,4.182,9.291,9.251V254.688z M308.824,254.688c0,5.148-4.143,9.33-9.251,9.33
	h-41.729c-5.148,0-9.29-4.182-9.29-9.33v-63.134c0-5.069,4.142-9.251,9.29-9.251h41.729c5.108,0,9.251,4.182,9.251,9.251V254.688z
	 M222.659,254.688c0,5.148-4.221,9.33-9.329,9.33h-41.457c-5.104,0-9.291-4.182-9.291-9.33v-63.134c0-5.069,4.188-9.251,9.291-9.251
	h41.457c5.108,0,9.329,4.182,9.329,9.251V254.688z M455.145,176.615c-12.427-27.559-45.941-25.28-45.941-25.28H50.594
	l-0.085,132.036h449.61L455.145,176.615L455.145,176.615z"/>
</svg>
