<svg xmlns="http://www.w3.org/2000/svg" viewBox="0 0 141.73 141.73"><g id="Ebene_2" data-name="Ebene 2"><g id="Ebene_2-2" data-name="Ebene 2"><circle cx="70.87" cy="70.87" r="70.87" fill="#589b56"/><path d="M110.12,30.16v18.5S93.24,28.72,68.25,28.72c-11.46,0-15.52,6.31-15.34,11.82S57.78,52,69.51,54.8s26.89,6.13,33.3,10.28,13.63,8.58,13.9,24.28-15.07,37.08-44.31,37.08c-15.61,0-33.8-7.13-42.86-15.52v-22s16.6,23.28,43.58,23.28c8.85,0,18-5.51,18-12.37,0-5.41-3.34-11-18-14.88s-22.56-6.32-27.7-8.76-16.87-10-16.87-25.9c0-17.05,13.53-34,41.23-34C90.45,16.27,100.55,23.85,110.12,30.16Z" fill="#fff"/></g></g></svg>