<svg xmlns="http://www.w3.org/2000/svg" viewBox="0 0 199.16 222.47"><defs><style>.cls-1{fill:#139e39;}.cls-2{fill:#135129;}.cls-3{fill:#fff;}</style></defs><g id="Hintergrund"><rect class="cls-1" width="199.15" height="185.94"/><rect class="cls-1" width="199.15" height="222.47" rx="19.84"/><path class="cls-2" d="M196.1,256.55A95.84,95.84,0,0,0,38.25,150.28V94a139.37,139.37,0,0,1,199.16,60.89v81.88a19.87,19.87,0,0,1-19.85,19.82Z" transform="translate(-38.25 -34.13)"/></g><g id="Zahlen"><polygon class="cls-3" points="109.55 33.59 126.93 20.35 146.69 20.35 146.69 151.34 128.12 151.34 128.12 40.9 109.55 54.53 109.55 33.59"/><polygon class="cls-3" points="40.7 33.59 58.09 20.35 77.85 20.35 77.85 151.34 59.28 151.34 59.28 40.9 40.7 54.53 40.7 33.59"/></g><g id="Text"><path class="cls-3" d="M53.62,234.93c5.86-8.11,9.17-13,9.17-17.39,0-3.09-1.21-5.28-3.7-5.28-1.63,0-3,1.43-4.14,3.24l-1.46-2c1.63-2.49,3.39-4.11,5.91-4.11,3.6,0,5.85,3.16,5.85,8,0,5.08-3.36,10.13-8,16.84a30.66,30.66,0,0,1,3.27-.23h5.64v3H53.62Z" transform="translate(-38.25 -34.13)"/><path class="cls-3" d="M79.49,223.09c0-9,1.07-13.06,6.39-13.06a7.06,7.06,0,0,1,5.78,3.44l-1.4,2.31A5.14,5.14,0,0,0,86,213.15c-4,0-3.83,2.91-3.83,9.85s-.43,11.39,3.85,11.39a4.53,4.53,0,0,0,3.61-1.64V225.5H85.34v-2.94h6.57v11.71a7.45,7.45,0,0,1-6.18,3.24C80.44,237.51,79.49,232.14,79.49,223.09Z" transform="translate(-38.25 -34.13)"/><path class="cls-3" d="M96.45,216.36h2.08l.21,3.76h.08c1-2.62,2.56-4.26,4.23-4.26a2.64,2.64,0,0,1,1.58.42l-.47,3.06a3.15,3.15,0,0,0-1.44-.34c-1.25,0-2.75,1.26-3.76,4.75V237H96.45Z" transform="translate(-38.25 -34.13)"/><path class="cls-3" d="M106.85,229.44V216.36h2.51V229c0,3.84.84,5.49,2.81,5.49,1.51,0,2.57-1,4-3.48V216.36h2.51V237h-2.07l-.21-3.23h-.09c-1.37,2.25-2.86,3.74-4.89,3.74C108.26,237.51,106.85,234.7,106.85,229.44Z" transform="translate(-38.25 -34.13)"/><path class="cls-3" d="M122.26,216.36h2.08l.21,3h.08c1.42-1.93,3-3.48,5-3.48,3.12,0,4.53,2.8,4.53,8.06V237h-2.51V224.38c0-3.85-.84-5.49-2.8-5.49-1.52,0-2.58,1.07-4.06,3.17V237h-2.52Z" transform="translate(-38.25 -34.13)"/><path class="cls-3" d="M137.87,226.71c0-6.72,3.25-10.85,6.67-10.85,3.79,0,5.93,3.77,5.93,9.68a15.68,15.68,0,0,1-.12,2h-10c.18,4.37,2.11,7.21,4.94,7.21a5.37,5.37,0,0,0,3.69-1.65l.9,2.29a7.21,7.21,0,0,1-4.9,2.14C141,237.51,137.87,233.49,137.87,226.71ZM148.25,225c0-4.14-1.34-6.38-3.66-6.38-2.09,0-4,2.33-4.26,6.38Z" transform="translate(-38.25 -34.13)"/><path class="cls-3" d="M152.72,216.36h2.07l.21,3.76h.09c1-2.62,2.55-4.26,4.22-4.26a2.65,2.65,0,0,1,1.59.42l-.47,3.06A3.21,3.21,0,0,0,159,219c-1.26,0-2.76,1.26-3.76,4.75V237h-2.51Z" transform="translate(-38.25 -34.13)"/><path class="cls-3" d="M171.06,209.14h6.28c4.09,0,7,2,7,7.84,0,5.56-2.93,8.24-7,8.24h-3.72V237h-2.56ZM177,222.35c3.12,0,4.83-1.76,4.83-5.37s-1.71-5-4.83-5h-3.36v10.34Zm-.14,1.9,2-1.83L185,237h-2.89Z" transform="translate(-38.25 -34.13)"/><path class="cls-3" d="M188.21,216.36h2.51V237h-2.51Z" transform="translate(-38.25 -34.13)"/><path class="cls-3" d="M194.32,216.36h2.07l.22,3h.08c1.42-1.93,2.94-3.48,5-3.48,3.13,0,4.54,2.8,4.54,8.06V237h-2.52V224.38c0-3.85-.83-5.49-2.8-5.49-1.52,0-2.57,1.07-4.06,3.17V237h-2.51Z" transform="translate(-38.25 -34.13)"/><rect class="cls-3" x="69.87" y="176.56" width="3.32" height="3.24"/><rect class="cls-3" x="76.57" y="176.56" width="3.32" height="3.24"/><rect class="cls-3" x="149.63" y="176.56" width="3.32" height="3.24"/><path class="cls-3" d="M222.15,234.61q0,10.19-7.8,10.18a8.75,8.75,0,0,1-4.79-1.3v-3a8.43,8.43,0,0,0,4.77,1.73q5.44,0,5.45-7.25v-2h-.06c-1.12,2.36-2.82,3.53-5.08,3.53a5.14,5.14,0,0,1-4.43-2.46,11.46,11.46,0,0,1-1.69-6.61,13.54,13.54,0,0,1,1.82-7.49,5.63,5.63,0,0,1,4.95-2.78,4.69,4.69,0,0,1,4.43,3h.06v-2.57h2.37Zm-2.37-6.87V225a6.08,6.08,0,0,0-1.19-3.77,3.58,3.58,0,0,0-3-1.57,3.86,3.86,0,0,0-3.43,2,10.51,10.51,0,0,0-1.24,5.58,9,9,0,0,0,1.19,4.93,3.58,3.58,0,0,0,3.15,1.85,3.81,3.81,0,0,0,3.24-1.76A7.7,7.7,0,0,0,219.78,227.74Z" transform="translate(-38.25 -34.13)"/></g></svg>