<svg id="SymbolFahrrad" xmlns="http://www.w3.org/2000/svg" viewBox="0 0 235.16 232.31"><defs><style>.cls-1{fill:#fff;}.cls-2{fill:#dc0c1e;}</style></defs><g id="Rahmen"><rect class="cls-1" x="5.79" y="5.79" width="223.58" height="220.73" rx="19.84"/></g><path class="cls-2" d="M225.25,262.55H59.13A34.56,34.56,0,0,1,24.61,228V64.76A34.56,34.56,0,0,1,59.13,30.24H225.25a34.56,34.56,0,0,1,34.52,34.52V228A34.56,34.56,0,0,1,225.25,262.55ZM59.13,41.82A23,23,0,0,0,36.2,64.76V228A23,23,0,0,0,59.13,251H225.25A23,23,0,0,0,248.19,228V64.76a23,23,0,0,0-22.94-22.94Z" transform="translate(-24.61 -30.24)"/><g id="Fahrrad"><circle class="cls-1" cx="56.7" cy="143.85" r="34.34"/><path class="cls-2" d="M81.31,212.05a38,38,0,1,1,38-38A38,38,0,0,1,81.31,212.05Zm0-68.69A30.73,30.73,0,1,0,112,174.09,30.77,30.77,0,0,0,81.31,143.36Z" transform="translate(-24.61 -30.24)"/><circle class="cls-1" cx="178.33" cy="143.85" r="34.34"/><path class="cls-2" d="M202.94,212.05a38,38,0,1,1,38-38A38,38,0,0,1,202.94,212.05Zm0-68.69a30.73,30.73,0,1,0,30.73,30.73A30.76,30.76,0,0,0,202.94,143.36Z" transform="translate(-24.61 -30.24)"/><path class="cls-2" d="M84.78,173.9l-6.94-2.07L99.58,99l.29-.44c.5-.77,5.11-7.54,11.37-7.54H127V98.3H111.24c-1.5,0-3.77,2.13-5,3.87Z" transform="translate(-24.61 -30.24)"/><rect class="cls-2" x="73.42" y="83.11" width="74.84" height="7.24"/><polygon class="cls-2" points="186.57 149.78 121.61 149.78 70.78 95.42 76.07 90.47 124.75 142.54 175.05 142.54 148.39 87.17 154.92 84.03 186.57 149.78"/><line class="cls-2" x1="154.95" y1="72.48" x2="127.12" y2="146.16"/><rect class="cls-2" x="126.26" y="135.94" width="78.76" height="7.24" transform="translate(-48.05 214.97) rotate(-69.31)"/><path class="cls-2" d="M157.67,97.93c.89,0,3.56,0,3.56,0H191v7.18h-17.1s-12.5-2.73-16.23-5.08C156.44,99.25,156.65,98,157.67,97.93Z" transform="translate(-24.61 -30.24)"/><path class="cls-2" d="M191.74,105.83h-18c-.51-.11-12.66-2.79-16.45-5.17a2.17,2.17,0,0,1-1.14-2.34,1.52,1.52,0,0,1,1.5-1.1h0c.89,0,3.58,0,3.58,0h30.5ZM174,104.39h16.3V98.66H161.23s-2.66,0-3.55,0h0c-.11,0-.12,0-.12,0s.05.43.51.72C161.5,101.58,172.94,104.16,174,104.39Z" transform="translate(-24.61 -30.24)"/></g></svg>