<svg xmlns="http://www.w3.org/2000/svg" viewBox="0 0 140.61 140.61"><g id="Ebene_2" data-name="Ebene 2"><g id="ÖPNV"><g id="Bus"><circle cx="70.31" cy="70.31" r="70.31" fill="#931c80"/><path d="M15.1,47.18h9.42V98.3H15.1Zm4.4,42.08H33.77a6.42,6.42,0,0,0,4.46-1.42,5,5,0,0,0,1.59-4V82.16a6,6,0,0,0-.72-3A4.78,4.78,0,0,0,37,77.2a7.53,7.53,0,0,0-3.3-.66H19.5v-9H33.66a5.77,5.77,0,0,0,4.08-1.37,5.07,5.07,0,0,0,1.48-3.91V60.93a4.36,4.36,0,0,0-1.46-3.5,6.13,6.13,0,0,0-4.1-1.25H19.5v-9H34.12A18.36,18.36,0,0,1,42,48.71a11,11,0,0,1,5,4.47,13.82,13.82,0,0,1,1.7,7v1.34a11,11,0,0,1-1.11,5,9.32,9.32,0,0,1-3.21,3.57A13.17,13.17,0,0,1,39.22,72,13,13,0,0,1,44.67,74a9.67,9.67,0,0,1,3.46,3.89,12.32,12.32,0,0,1,1.18,5.55v1.8a14,14,0,0,1-1.71,7.08,10.84,10.84,0,0,1-5,4.5,18.49,18.49,0,0,1-7.88,1.53H19.5Z" fill="#fff"/><path d="M64.85,96.77a13.68,13.68,0,0,1-5.84-6,20.86,20.86,0,0,1-2-9.48V47.18h9.42V81.53a8.13,8.13,0,0,0,2,5.87,7.44,7.44,0,0,0,5.64,2.11,7.55,7.55,0,0,0,5.7-2.11,8.09,8.09,0,0,0,2-5.87V47.18h9.42v34.1a20.6,20.6,0,0,1-2,9.48,13.8,13.8,0,0,1-5.87,6,19.46,19.46,0,0,1-9.27,2.06A19.29,19.29,0,0,1,64.85,96.77Z" fill="#fff"/><path d="M108.39,97.82a18.73,18.73,0,0,1-6-2.95,16.25,16.25,0,0,1-4.31-4.8l6.86-6.19a12.93,12.93,0,0,0,4.86,4.36,13.81,13.81,0,0,0,6.42,1.52,10.24,10.24,0,0,0,5.91-1.48,4.8,4.8,0,0,0,2.11-4.15V83a4.23,4.23,0,0,0-1.08-3,7.24,7.24,0,0,0-2.77-1.78A34.1,34.1,0,0,0,115.89,77l-.19,0-.19,0-.53-.11a49.72,49.72,0,0,1-7.77-2.28,11.81,11.81,0,0,1-5.15-4.17q-2.13-2.94-2.13-8.1v-.71a15.27,15.27,0,0,1,2-8,12.89,12.89,0,0,1,5.93-5.1,22.86,22.86,0,0,1,9.42-1.76,20.1,20.1,0,0,1,6.12.92,17.26,17.26,0,0,1,5.25,2.72,18.22,18.22,0,0,1,4.1,4.38L126.41,61A14.73,14.73,0,0,0,122,57a10.34,10.34,0,0,0-5.08-1.39A9.83,9.83,0,0,0,111.27,57a4.35,4.35,0,0,0-2,3.77v.88a4.58,4.58,0,0,0,1.16,3.3,7.48,7.48,0,0,0,2.88,1.88,42.13,42.13,0,0,0,4.81,1.39l.34.07a1.82,1.82,0,0,1,.33.11l.37.1.34.07A40.4,40.4,0,0,1,126.79,71a12.1,12.1,0,0,1,4.84,4.21,13.4,13.4,0,0,1,2,7.7V84a14.79,14.79,0,0,1-2.09,8,13.2,13.2,0,0,1-6.1,5.08,24,24,0,0,1-9.6,1.74A26,26,0,0,1,108.39,97.82Z" fill="#fff"/></g></g></g></svg>